<svg width="2560" height="546" xmlns="http://www.w3.org/2000/svg" xmlns:xlink="http://www.w3.org/1999/xlink" xml:space="preserve" overflow="hidden"><defs><clipPath id="clip0"><rect x="612" y="900" width="2560" height="546"/></clipPath></defs><g clip-path="url(#clip0)" transform="translate(-612 -900)"><text fill="#F2F2F2" font-family="Source Sans Pro,Source Sans Pro_MSFontService,sans-serif" font-weight="400" font-size="128" transform="matrix(1 0 0 1 689.296 1060)">Accesibilidad y modelación a </text><text fill="#F2F2F2" font-family="Source Sans Pro,Source Sans Pro_MSFontService,sans-serif" font-weight="400" font-size="128" transform="matrix(1 0 0 1 689.296 1214)">servicios básicos</text><text fill="#F2F2F2" font-family="Source Sans Pro,Source Sans Pro_MSFontService,sans-serif" font-weight="700" font-size="110" transform="matrix(1 0 0 1 689.296 1350)">FONDECYT Regular 1230159</text><path d="M2609 1172.5C2609 1103.19 2664.96 1047 2734 1047 2803.04 1047 2859 1103.19 2859 1172.5 2859 1241.81 2803.04 1298 2734 1298 2664.96 1298 2609 1241.81 2609 1172.5Z" stroke="#F2F2F2" stroke-width="10.3125" stroke-miterlimit="8" fill="none" fill-rule="evenodd"/><path d="M2908 1027.5C2908 992.982 2936.21 965 2971 965 3005.79 965 3034 992.982 3034 1027.5 3034 1062.02 3005.79 1090 2971 1090 2936.21 1090 2908 1062.02 2908 1027.5Z" stroke="#F2F2F2" stroke-width="10.3125" stroke-miterlimit="8" fill="none" fill-rule="evenodd"/><path d="M3074 1257C3074 1231.04 3094.82 1210 3120.5 1210 3146.18 1210 3167 1231.04 3167 1257 3167 1282.96 3146.18 1304 3120.5 1304 3094.82 1304 3074 1282.96 3074 1257Z" stroke="#F2F2F2" stroke-width="10.3125" stroke-miterlimit="8" fill="none" fill-rule="evenodd"/><path d="M2864 1348C2864 1323.7 2883.7 1304 2908 1304 2932.3 1304 2952 1323.7 2952 1348 2952 1372.3 2932.3 1392 2908 1392 2883.7 1392 2864 1372.3 2864 1348Z" stroke="#F2F2F2" stroke-width="10.3125" stroke-miterlimit="8" fill="none" fill-rule="evenodd"/><path d="M2454 987.5C2454 958.505 2477.51 935 2506.5 935 2535.49 935 2559 958.505 2559 987.5 2559 1016.49 2535.49 1040 2506.5 1040 2477.51 1040 2454 1016.49 2454 987.5Z" stroke="#F2F2F2" stroke-width="10.3125" stroke-miterlimit="8" fill="none" fill-rule="evenodd"/><path d="M2457 1327.5C2457 1314.52 2467.52 1304 2480.5 1304 2493.48 1304 2504 1314.52 2504 1327.5 2504 1340.48 2493.48 1351 2480.5 1351 2467.52 1351 2457 1340.48 2457 1327.5Z" stroke="#F2F2F2" stroke-width="10.3125" stroke-miterlimit="8" fill="none" fill-rule="evenodd"/><path d="M0 0 127.188 77.3436" stroke="#F2F2F2" stroke-width="10.3125" stroke-miterlimit="8" fill="none" fill-rule="evenodd" transform="matrix(1 0 0 -1 2500 1317.34)"/><path d="M2542 1021 2634.81 1094.91" stroke="#F2F2F2" stroke-width="10.3125" stroke-miterlimit="8" fill="none" fill-rule="evenodd"/><path d="M0 0 75.625 44.6875" stroke="#F2F2F2" stroke-width="10.3125" stroke-miterlimit="8" fill="none" fill-rule="evenodd" transform="matrix(1 0 0 -1 2841 1105.69)"/><path d="M2849 1212 3071.27 1248.84" stroke="#F2F2F2" stroke-width="10.3125" stroke-miterlimit="8" fill="none" fill-rule="evenodd"/><path d="M2822 1262 2878.27 1311.9" stroke="#F2F2F2" stroke-width="10.3125" stroke-miterlimit="8" fill="none" fill-rule="evenodd"/></g></svg>